<svg width="512" height="512" viewBox="0 0 512 512" xmlns="http://www.w3.org/2000/svg" role="img" aria-label="AI Startup Builder icon">
  <defs>
    <linearGradient id="bgGrad" x1="0" y1="0" x2="1" y2="1">
      <stop offset="0%" stop-color="#020617"/>
      <stop offset="100%" stop-color="#020826"/>
    </linearGradient>
    <linearGradient id="ringGrad" x1="0.15" y1="0.2" x2="0.85" y2="0.9">
      <stop offset="0%" stop-color="#A56BFF"/>
      <stop offset="100%" stop-color="#4F86FF"/>
    </linearGradient>
    <filter id="softGlow" x="-30%" y="-30%" width="160%" height="160%">
      <feGaussianBlur stdDeviation="7" result="blur"/>
      <feMerge>
        <feMergeNode in="blur"/>
        <feMergeNode in="SourceGraphic"/>
      </feMerge>
    </filter>
  </defs>

  <rect x="0" y="0" width="512" height="512" rx="74" fill="url(#bgGrad)"/>

  <path
    d="M337 95c-78 0-141 63-141 141 0 26 7 50 19 71-4 10-13 21-26 28-18 11-33 27-31 43 2 17 23 25 59 30 54 8 129 4 165-7 31-9 46-25 27-38-20-14-38-28-45-39 12-18 20-40 20-63 0-69-56-125-125-125zm0 59c36 0 66 30 66 66 0 16-6 32-16 44-7 7-7 18 1 25 8 8 20 17 30 24-29 8-90 10-133 4 14-12 24-27 26-45 1-8-1-15-5-21-10-14-15-30-15-47 0-49 40-89 89-89z"
    fill="url(#ringGrad)"
    filter="url(#softGlow)"/>

  <path
    d="M304 182c8 28 11 31 39 39-28 8-31 11-39 39-8-28-11-31-39-39 28-8 31-11 39-39z"
    fill="#F7FAFF"/>
</svg>
